  0
SECTION
  2
HEADER
  9
$ACADVER
  1
AC1009
  9
$DWGCODEPAGE
  3
ansi_1252
  9
$INSBASE
 10
0.0
 20
0.0
 30
0.0
  9
$EXTMIN
 10
-30.58
 20
-30.58
 30
0.0
  9
$EXTMAX
 10
30.58
 20
30.58
 30
0.0
  9
$LIMMIN
 10
0.0
 20
0.0
  9
$LIMMAX
 10
420.0
 20
297.0
  9
$ORTHOMODE
 70
     0
  9
$REGENMODE
 70
     1
  9
$FILLMODE
 70
     1
  9
$QTEXTMODE
 70
     0
  9
$MIRRTEXT
 70
     1
  9
$DRAGMODE
 70
     2
  9
$LTSCALE
 40
1.0
  9
$OSMODE
 70
    37
  9
$ATTMODE
 70
     1
  9
$TEXTSIZE
 40
0.3175
  9
$TRACEWID
 40
1.0
  9
$TEXTSTYLE
  7
STANDARD
  9
$CLAYER
  8
0
  9
$CELTYPE
  6
BYLAYER
  9
$CECOLOR
 62
   256
  9
$DIMSCALE
 40
1.0
  9
$DIMASZ
 40
0.3302
  9
$DIMEXO
 40
0.127
  9
$DIMDLI
 40
3.75
  9
$DIMRND
 40
0.0
  9
$DIMDLE
 40
0.0
  9
$DIMEXE
 40
0.3175
  9
$DIMTP
 40
0.0
  9
$DIMTM
 40
0.0
  9
$DIMTXT
 40
0.3175
  9
$DIMCEN
 40
2.5
  9
$DIMTSZ
 40
0.0
  9
$DIMTOL
 70
     0
  9
$DIMLIM
 70
     0
  9
$DIMTIH
 70
     1
  9
$DIMTOH
 70
     1
  9
$DIMSE1
 70
     0
  9
$DIMSE2
 70
     0
  9
$DIMTAD
 70
     0
  9
$DIMZIN
 70
     0
  9
$DIMBLK
  1

  9
$DIMASO
 70
     1
  9
$DIMSHO
 70
     1
  9
$DIMPOST
  1

  9
$DIMAPOST
  1

  9
$DIMALT
 70
     0
  9
$DIMALTD
 70
     3
  9
$DIMALTF
 40
0.3937007874
  9
$DIMLFAC
 40
1.0
  9
$DIMTOFL
 70
     1
  9
$DIMTVP
 40
0.0
  9
$DIMTIX
 70
     0
  9
$DIMSOXD
 70
     0
  9
$DIMSAH
 70
     0
  9
$DIMBLK1
  1

  9
$DIMBLK2
  1

  9
$DIMSTYLE
  2
ISO-25
  9
$DIMCLRD
 70
     0
  9
$DIMCLRE
 70
     0
  9
$DIMCLRT
 70
     0
  9
$DIMTFAC
 40
1.0
  9
$DIMGAP
 40
0.1524
  9
$LUNITS
 70
     2
  9
$LUPREC
 70
     2
  9
$SKETCHINC
 40
1.0
  9
$FILLETRAD
 40
10.0
  9
$AUNITS
 70
     0
  9
$AUPREC
 70
     2
  9
$MENU
  1
.
  9
$ELEVATION
 40
0.0
  9
$PELEVATION
 40
0.0
  9
$THICKNESS
 40
0.0
  9
$LIMCHECK
 70
     0
  9
$CHAMFERA
 40
10.0
  9
$CHAMFERB
 40
10.0
  9
$SKPOLY
 70
     0
  9
$TDCREATE
 40
2456301.89924066
  9
$TDUPDATE
 40
2456301.899240671
  9
$TDINDWG
 40
0.0000000116
  9
$TDUSRTIMER
 40
0.0000000116
  9
$USRTIMER
 70
     1
  9
$ANGBASE
 50
0.0
  9
$ANGDIR
 70
     0
  9
$PDMODE
 70
     0
  9
$PDSIZE
 40
-1.0
  9
$PLINEWID
 40
0.0
  9
$COORDS
 70
     1
  9
$SPLFRAME
 70
     0
  9
$SPLINETYPE
 70
     6
  9
$SPLINESEGS
 70
     8
  9
$ATTDIA
 70
     0
  9
$ATTREQ
 70
     1
  9
$HANDLING
 70
     1
  9
$HANDSEED
  5
AF
  9
$SURFTAB1
 70
     6
  9
$SURFTAB2
 70
     6
  9
$SURFTYPE
 70
     6
  9
$SURFU
 70
     6
  9
$SURFV
 70
     6
  9
$UCSNAME
  2

  9
$UCSORG
 10
0.0
 20
0.0
 30
0.0
  9
$UCSXDIR
 10
1.0
 20
0.0
 30
0.0
  9
$UCSYDIR
 10
0.0
 20
1.0
 30
0.0
  9
$PUCSNAME
  2

  9
$PUCSORG
 10
0.0
 20
0.0
 30
0.0
  9
$PUCSXDIR
 10
1.0
 20
0.0
 30
0.0
  9
$PUCSYDIR
 10
0.0
 20
1.0
 30
0.0
  9
$USERI1
 70
     0
  9
$USERI2
 70
     0
  9
$USERI3
 70
     0
  9
$USERI4
 70
     0
  9
$USERI5
 70
     0
  9
$USERR1
 40
0.0
  9
$USERR2
 40
0.0
  9
$USERR3
 40
0.0
  9
$USERR4
 40
0.0
  9
$USERR5
 40
0.0
  9
$WORLDVIEW
 70
     1
  9
$SHADEDGE
 70
     3
  9
$SHADEDIF
 70
    70
  9
$TILEMODE
 70
     1
  9
$MAXACTVP
 70
    64
  9
$PLIMCHECK
 70
     0
  9
$PEXTMIN
 10
1.0000000000E+20
 20
1.0000000000E+20
 30
1.0000000000E+20
  9
$PEXTMAX
 10
-1.0000000000E+20
 20
-1.0000000000E+20
 30
-1.0000000000E+20
  9
$PLIMMIN
 10
0.0
 20
0.0
  9
$PLIMMAX
 10
420.0
 20
297.0
  9
$UNITMODE
 70
     0
  9
$VISRETAIN
 70
     1
  9
$PLINEGEN
 70
     0
  9
$PSLTSCALE
 70
     1
  0
ENDSEC
  0
SECTION
  2
TABLES
  0
TABLE
  2
VPORT
 70
     1
  0
VPORT
  2
*ACTIVE
 70
     0
 10
0.0
 20
0.0
 11
1.0
 21
1.0
 12
0.0
 22
0.0
 13
0.0
 23
0.0
 14
10.0
 24
10.0
 15
10.0
 25
10.0
 16
0.0
 26
0.0
 36
1.0
 17
0.0
 27
0.0
 37
0.0
 40
62.3832
 41
1.0
 42
50.0
 43
0.0
 44
0.0
 50
0.0
 51
0.0
 71
     0
 72
   100
 73
     1
 74
     3
 75
     0
 76
     0
 77
     0
 78
     0
  0
ENDTAB
  0
TABLE
  2
LTYPE
 70
     6
  0
LTYPE
  2
CONTINUOUS
 70
     0
  3
Solid line
 72
    65
 73
     0
 40
0.0
  0
LTYPE
  2
HIDDEN
 70
     0
  3
Hidden __ __ __ __ __ __ __ __ __ __ __ __ __ __
 72
    65
 73
     2
 40
0.1905
 49
0.127
 49
-0.0635
  0
LTYPE
  2
PHANTOM
 70
     0
  3
Phantom ______  __  __  ______  __  __  ______
 72
    65
 73
     6
 40
1.27
 49
0.635
 49
-0.127
 49
0.127
 49
-0.127
 49
0.127
 49
-0.127
  0
LTYPE
  2
CENTER
 70
     0
  3
Center ____ _ ____ _ ____ _ ____ _ ____ _ ____
 72
    65
 73
     4
 40
1.016
 49
0.635
 49
-0.127
 49
0.127
 49
-0.127
  0
LTYPE
  2
CENTERX2
 70
     0
  3
Center (2x) ________  __  ________  __  _____
 72
    65
 73
     4
 40
2.032
 49
1.27
 49
-0.254
 49
0.254
 49
-0.254
  0
LTYPE
  2
DOT2
 70
     0
  3
Dot (.5x) ........................................
 72
    65
 73
     2
 40
0.0635
 49
0.0
 49
-0.0635
  0
ENDTAB
  0
TABLE
  2
LAYER
 70
     1
  0
LAYER
  2
0
 70
     0
 62
     7
  6
CONTINUOUS
  0
ENDTAB
  0
TABLE
  2
STYLE
 70
     1
  0
STYLE
  2
STANDARD
 70
     0
 40
0.0
 41
1.0
 50
0.0
 71
     0
 42
2.5
  3
txt
  4

  0
ENDTAB
  0
TABLE
  2
VIEW
 70
     0
  0
ENDTAB
  0
TABLE
  2
UCS
 70
     0
  0
ENDTAB
  0
TABLE
  2
APPID
 70
     1
  0
APPID
  2
ACAD
 70
     0
  0
ENDTAB
  0
TABLE
  2
DIMSTYLE
 70
     1
  0
DIMSTYLE
  2
ISO-25
 70
     0
  3

  4

  5

  6

  7

 40
1.0
 41
2.5
 42
0.625
 43
3.75
 44
1.25
 45
0.0
 46
0.0
 47
0.0
 48
0.0
140
2.5
141
2.5
142
0.0
143
0.0393700787
144
1.0
145
0.0
146
1.0
147
0.625
 71
     0
 72
     0
 73
     0
 74
     0
 75
     0
 76
     0
 77
     1
 78
     8
170
     0
171
     3
172
     1
173
     0
174
     0
175
     0
176
     0
177
     0
178
     0
  0
ENDTAB
  0
ENDSEC
  0
SECTION
  2
BLOCKS
  0
BLOCK
  8
0
  2
$MODEL_SPACE
 70
     0
 10
0.0
 20
0.0
 30
0.0
  3
$MODEL_SPACE
  1

  0
ENDBLK
  5
21
  8
0
  0
BLOCK
 67
     1
  8
0
  2
$PAPER_SPACE
 70
     0
 10
0.0
 20
0.0
 30
0.0
  3
$PAPER_SPACE
  1

  0
ENDBLK
  5
1D
 67
     1
  8
0
  0
ENDSEC
  0
SECTION
  2
ENTITIES
  0
CIRCLE
  5
44
  8
0
  6
CONTINUOUS
 62
     7
 10
-12.5
 20
21.6506350946
 30
0.0
 40
0.1500000000000004
  0
CIRCLE
  5
45
  8
0
  6
CONTINUOUS
 62
     7
 10
25.0
 20
0.0
 30
0.0
 40
0.1499999999999986
  0
CIRCLE
  5
4A
  8
0
  6
CONTINUOUS
 62
     7
 10
-12.5
 20
-21.6506350946
 30
0.0
 40
0.1500000000000021
  0
LINE
  5
7B
  8
0
  6
CONTINUOUS
 62
     7
 10
-30.58
 20
-30.58
 30
0.0
 11
30.58
 21
-30.58
 31
0.0
  0
LINE
  5
7C
  8
0
  6
CONTINUOUS
 62
     7
 10
-30.58
 20
30.58
 30
0.0
 11
-30.58
 21
-30.58
 31
0.0
  0
LINE
  5
7D
  8
0
  6
CONTINUOUS
 62
     7
 10
30.58
 20
30.58
 30
0.0
 11
-30.58
 21
30.58
 31
0.0
  0
LINE
  5
7E
  8
0
  6
CONTINUOUS
 62
     7
 10
30.58
 20
-30.58
 30
0.0
 11
30.58
 21
30.58
 31
0.0
  0
LINE
  5
7F
  8
0
  6
CONTINUOUS
 62
     7
 10
23.58
 20
0.7142857143
 30
0.0
 11
23.58
 21
2.1428571429
 31
0.0
  0
LINE
  5
80
  8
0
  6
CONTINUOUS
 62
     7
 10
23.58
 20
2.1428571429
 30
0.0
 11
23.38
 21
2.1428571429
 31
0.0
  0
LINE
  5
81
  8
0
  6
CONTINUOUS
 62
     7
 10
23.38
 20
2.1428571429
 30
0.0
 11
23.38
 21
0.7142857143
 31
0.0
  0
LINE
  5
82
  8
0
  6
CONTINUOUS
 62
     7
 10
23.38
 20
0.7142857143
 30
0.0
 11
23.58
 21
0.7142857143
 31
0.0
  0
LINE
  5
83
  8
0
  6
CONTINUOUS
 62
     7
 10
23.58
 20
-2.1428571429
 30
0.0
 11
23.58
 21
-0.7142857143
 31
0.0
  0
LINE
  5
84
  8
0
  6
CONTINUOUS
 62
     7
 10
23.58
 20
-0.7142857143
 30
0.0
 11
23.38
 21
-0.7142857143
 31
0.0
  0
LINE
  5
85
  8
0
  6
CONTINUOUS
 62
     7
 10
23.38
 20
-0.7142857143
 30
0.0
 11
23.38
 21
-2.1428571429
 31
0.0
  0
LINE
  5
86
  8
0
  6
CONTINUOUS
 62
     7
 10
23.38
 20
-2.1428571429
 30
0.0
 11
23.58
 21
-2.1428571429
 31
0.0
  0
LINE
  5
87
  8
0
  6
CONTINUOUS
 62
     7
 10
23.58
 20
-5.0
 30
0.0
 11
23.58
 21
-3.5714285714
 31
0.0
  0
LINE
  5
88
  8
0
  6
CONTINUOUS
 62
     7
 10
23.58
 20
-3.5714285714
 30
0.0
 11
23.38
 21
-3.5714285714
 31
0.0
  0
LINE
  5
89
  8
0
  6
CONTINUOUS
 62
     7
 10
23.38
 20
-3.5714285714
 30
0.0
 11
23.38
 21
-5.0
 31
0.0
  0
LINE
  5
8A
  8
0
  6
CONTINUOUS
 62
     7
 10
23.38
 20
-5.0
 30
0.0
 11
23.58
 21
-5.0
 31
0.0
  0
LINE
  5
8B
  8
0
  6
CONTINUOUS
 62
     7
 10
23.58
 20
3.5714285714
 30
0.0
 11
23.58
 21
5.0
 31
0.0
  0
LINE
  5
8C
  8
0
  6
CONTINUOUS
 62
     7
 10
23.58
 20
5.0
 30
0.0
 11
23.38
 21
5.0
 31
0.0
  0
LINE
  5
8D
  8
0
  6
CONTINUOUS
 62
     7
 10
23.38
 20
5.0
 30
0.0
 11
23.38
 21
3.5714285714
 31
0.0
  0
LINE
  5
8E
  8
0
  6
CONTINUOUS
 62
     7
 10
23.38
 20
3.5714285714
 30
0.0
 11
23.58
 21
3.5714285714
 31
0.0
  0
LINE
  5
8F
  8
0
  6
CONTINUOUS
 62
     7
 10
-12.4085895741
 20
20.0637361641
 30
0.0
 11
-13.6457687224
 21
19.3494504498
 31
0.0
  0
LINE
  5
90
  8
0
  6
CONTINUOUS
 62
     7
 10
-13.6457687224
 20
19.3494504498
 30
0.0
 11
-13.5457687224
 21
19.1762453691
 31
0.0
  0
LINE
  5
91
  8
0
  6
CONTINUOUS
 62
     7
 10
-13.5457687224
 20
19.1762453691
 30
0.0
 11
-12.3085895741
 21
19.8905310833
 31
0.0
  0
LINE
  5
92
  8
0
  6
CONTINUOUS
 62
     7
 10
-12.3085895741
 20
19.8905310833
 30
0.0
 11
-12.4085895741
 21
20.0637361641
 31
0.0
  0
LINE
  5
93
  8
0
  6
CONTINUOUS
 62
     7
 10
-9.9342312776
 20
21.4923075927
 30
0.0
 11
-11.1714104259
 21
20.7780218784
 31
0.0
  0
LINE
  5
94
  8
0
  6
CONTINUOUS
 62
     7
 10
-11.1714104259
 20
20.7780218784
 30
0.0
 11
-11.0714104259
 21
20.6048167976
 31
0.0
  0
LINE
  5
95
  8
0
  6
CONTINUOUS
 62
     7
 10
-11.0714104259
 20
20.6048167976
 30
0.0
 11
-9.8342312776
 21
21.3191025119
 31
0.0
  0
LINE
  5
96
  8
0
  6
CONTINUOUS
 62
     7
 10
-9.8342312776
 20
21.3191025119
 30
0.0
 11
-9.9342312776
 21
21.4923075927
 31
0.0
  0
LINE
  5
97
  8
0
  6
CONTINUOUS
 62
     7
 10
-7.4598729811
 20
22.9208790212
 30
0.0
 11
-8.6970521293
 21
22.206593307
 31
0.0
  0
LINE
  5
98
  8
0
  6
CONTINUOUS
 62
     7
 10
-8.6970521293
 20
22.206593307
 30
0.0
 11
-8.5970521293
 21
22.0333882262
 31
0.0
  0
LINE
  5
99
  8
0
  6
CONTINUOUS
 62
     7
 10
-8.5970521293
 20
22.0333882262
 30
0.0
 11
-7.3598729811
 21
22.7476739405
 31
0.0
  0
LINE
  5
9A
  8
0
  6
CONTINUOUS
 62
     7
 10
-7.3598729811
 20
22.7476739405
 30
0.0
 11
-7.4598729811
 21
22.9208790212
 31
0.0
  0
LINE
  5
9B
  8
0
  6
CONTINUOUS
 62
     7
 10
-14.8829478707
 20
18.6351647355
 30
0.0
 11
-16.1201270189
 21
17.9208790212
 31
0.0
  0
LINE
  5
9C
  8
0
  6
CONTINUOUS
 62
     7
 10
-16.1201270189
 20
17.9208790212
 30
0.0
 11
-16.0201270189
 21
17.7476739405
 31
0.0
  0
LINE
  5
9D
  8
0
  6
CONTINUOUS
 62
     7
 10
-16.0201270189
 20
17.7476739405
 30
0.0
 11
-14.7829478707
 21
18.4619596548
 31
0.0
  0
LINE
  5
9E
  8
0
  6
CONTINUOUS
 62
     7
 10
-14.7829478707
 20
18.4619596548
 30
0.0
 11
-14.8829478707
 21
18.6351647355
 31
0.0
  0
LINE
  5
9F
  8
0
  6
CONTINUOUS
 62
     7
 10
-11.1714104259
 20
-20.7780218784
 30
0.0
 11
-9.9342312776
 21
-21.4923075927
 31
0.0
  0
LINE
  5
A0
  8
0
  6
CONTINUOUS
 62
     7
 10
-9.9342312776
 20
-21.4923075927
 30
0.0
 11
-9.8342312776
 21
-21.3191025119
 31
0.0
  0
LINE
  5
A1
  8
0
  6
CONTINUOUS
 62
     7
 10
-9.8342312776
 20
-21.3191025119
 30
0.0
 11
-11.0714104259
 21
-20.6048167976
 31
0.0
  0
LINE
  5
A2
  8
0
  6
CONTINUOUS
 62
     7
 10
-11.0714104259
 20
-20.6048167976
 30
0.0
 11
-11.1714104259
 21
-20.7780218784
 31
0.0
  0
LINE
  5
A3
  8
0
  6
CONTINUOUS
 62
     7
 10
-13.6457687224
 20
-19.3494504498
 30
0.0
 11
-12.4085895741
 21
-20.0637361641
 31
0.0
  0
LINE
  5
A4
  8
0
  6
CONTINUOUS
 62
     7
 10
-12.4085895741
 20
-20.0637361641
 30
0.0
 11
-12.3085895741
 21
-19.8905310833
 31
0.0
  0
LINE
  5
A5
  8
0
  6
CONTINUOUS
 62
     7
 10
-12.3085895741
 20
-19.8905310833
 30
0.0
 11
-13.5457687224
 21
-19.1762453691
 31
0.0
  0
LINE
  5
A6
  8
0
  6
CONTINUOUS
 62
     7
 10
-13.5457687224
 20
-19.1762453691
 30
0.0
 11
-13.6457687224
 21
-19.3494504498
 31
0.0
  0
LINE
  5
A7
  8
0
  6
CONTINUOUS
 62
     7
 10
-16.1201270189
 20
-17.9208790212
 30
0.0
 11
-14.8829478707
 21
-18.6351647355
 31
0.0
  0
LINE
  5
A8
  8
0
  6
CONTINUOUS
 62
     7
 10
-14.8829478707
 20
-18.6351647355
 30
0.0
 11
-14.7829478707
 21
-18.4619596548
 31
0.0
  0
LINE
  5
A9
  8
0
  6
CONTINUOUS
 62
     7
 10
-14.7829478707
 20
-18.4619596548
 30
0.0
 11
-16.0201270189
 21
-17.7476739405
 31
0.0
  0
LINE
  5
AA
  8
0
  6
CONTINUOUS
 62
     7
 10
-16.0201270189
 20
-17.7476739405
 30
0.0
 11
-16.1201270189
 21
-17.9208790212
 31
0.0
  0
LINE
  5
AB
  8
0
  6
CONTINUOUS
 62
     7
 10
-8.6970521293
 20
-22.206593307
 30
0.0
 11
-7.4598729811
 21
-22.9208790212
 31
0.0
  0
LINE
  5
AC
  8
0
  6
CONTINUOUS
 62
     7
 10
-7.4598729811
 20
-22.9208790212
 30
0.0
 11
-7.3598729811
 21
-22.7476739405
 31
0.0
  0
LINE
  5
AD
  8
0
  6
CONTINUOUS
 62
     7
 10
-7.3598729811
 20
-22.7476739405
 30
0.0
 11
-8.5970521293
 21
-22.0333882262
 31
0.0
  0
LINE
  5
AE
  8
0
  6
CONTINUOUS
 62
     7
 10
-8.5970521293
 20
-22.0333882262
 30
0.0
 11
-8.6970521293
 21
-22.206593307
 31
0.0
  0
ENDSEC
  0
EOF
